<?xml version="1.0" encoding="utf-8"?>
<!-- Generator: Adobe Illustrator 23.0.3, SVG Export Plug-In . SVG Version: 6.00 Build 0)  -->
<svg version="1.1" id="illustrator" xmlns="http://www.w3.org/2000/svg" xmlns:xlink="http://www.w3.org/1999/xlink" x="0px"
	 y="0px" viewBox="0 0 128 128" enable-background="new 0 0 128 128" xml:space="preserve">
<g id="plain">
	<path fill-rule="evenodd" clip-rule="evenodd" fill="#FAA625" d="M47.955,69c5.085,0,10.128,0,15.371,0
		c-2.646-9-5.252-17.32-7.816-25.776C53.022,51.71,50.498,60,47.955,69z"/>
	<path fill-rule="evenodd" clip-rule="evenodd" fill="#FAA625" d="M124.112,1C83.699,1,43.286,1,2.873,1C0.687,1,1,1.476,1,3.585
		C1,44.05,1,84.514,1,124.979C1,127.086,0.687,127,2.719,127c40.516,0,81.031,0,121.547,0c2.031,0,2.734,0.086,2.734-2.022
		c0-20.206,0-40.413,0-60.62c0-20.206,0-40.412,0-60.619C127,1.476,126.298,1,124.112,1z M77.298,96
		c-1.637,0-3.28-0.133-4.909-0.016c-1.175,0.088-1.568-0.406-1.881-1.426c-1.514-4.931-3.123-9.86-4.638-14.79
		c-0.305-0.992-0.741-1.354-1.816-1.341c-5.523,0.065-11.049,0.058-16.573-0.007c-1.163-0.014-1.698,0.296-2.03,1.45
		c-1.406,4.904-2.944,9.768-4.365,14.667c-0.308,1.062-0.776,1.433-1.904,1.404c-3.318-0.083-6.641-0.032-10.275-0.032
		c0.959-3.045,1.829-5.861,2.729-8.665c5.514-17.2,11.047-34.4,16.521-51.611c0.382-1.198,0.913-1.567,2.143-1.54
		c3.886,0.086,7.775,0.022,11.663,0c0.727-0.005,1.223,0.038,1.489,0.864c6.505,20.116,13.033,40.356,19.555,60.47
		C83.036,95.518,83.018,96,83.033,96C81.115,96,79.206,96,77.298,96z M98,96c-4,0-8,0-12,0c0-15,0-30,0-45c4,0,8,0,12,0
		C98,66,98,81,98,96z M91.65,44.929c-3.665-0.005-6.289-2.528-6.314-6.07c-0.024-3.532,2.707-6.159,6.406-6.163
		c3.727-0.004,6.355,2.537,6.384,6.171C98.152,42.412,95.459,44.935,91.65,44.929z"/>
</g>
<g id="line">
	<path fill-rule="evenodd" clip-rule="evenodd" fill="#FAA625" d="M-147,1c0,42,0,83.846,0,125.791c1,0.082,0.99,0.235,1.359,0.235
		c36.269,0.011,72.664,0.011,108.934,0.011c4.994,0,9.859,0.004,14.854-0.011c0.328-0.001,0.854-0.153,0.854-0.235
		C-21,84.832-21,43-21,1C-63,1-105,1-147,1z M-33,63.914c0,16.184,0,32.368,0,48.551c0,1.688-0.253,1.535-1.88,1.535
		c-32.45,0-64.899,0-97.349,0c-1.628,0-1.771,0.154-1.771-1.534c0-32.409,0-64.817,0-97.226c0-1.689,0.144-2.241,1.894-2.241
		c32.368,0,64.735,0,97.103,0C-33.252,13-33,13.551-33,15.363C-33,31.547-33,47.73-33,63.914z"/>
	<path fill-rule="evenodd" clip-rule="evenodd" fill="#FAA625" d="M-83.586,40.368c-0.214-0.662-0.612-0.696-1.193-0.693
		c-3.114,0.019-6.229,0.069-9.341,0c-0.984-0.021-1.411,0.274-1.715,1.233c-4.385,13.785-8.817,27.561-13.233,41.336
		c-0.72,2.246-1.418,4.501-2.185,6.939c2.911,0,5.571-0.04,8.229,0.026c0.903,0.022,1.279-0.275,1.525-1.126
		c1.138-3.924,2.37-7.821,3.497-11.748c0.265-0.926,0.694-1.176,1.625-1.165c4.424,0.052,8.85,0.052,13.274,0
		c0.861-0.01,1.211,0.268,1.455,1.062c1.213,3.949,2.502,7.874,3.714,11.823c0.251,0.816,0.566,1.13,1.507,1.062
		C-75.124,89.022-73.808,89-72.497,89c1.528,0,3.056,0,4.592,0c-0.012,0,0.002-0.257-0.021-0.331
		C-73.148,72.562-78.377,56.479-83.586,40.368z M-95.999,68c2.037-7,4.059-13.848,6.051-20.644C-87.895,54.128-85.807,61-83.688,68
		C-87.887,68-91.926,68-95.999,68z"/>
	<ellipse fill-rule="evenodd" clip-rule="evenodd" fill="#FAA625" cx="-61" cy="71" rx="6.892" ry="26.153"/>
	<path fill-rule="evenodd" clip-rule="evenodd" fill="#FAA625" d="M-60.929,38.555c-2.963,0.003-5.151,2.107-5.131,4.936
		c0.02,2.837,2.122,4.857,5.057,4.862c3.051,0.004,5.208-2.015,5.187-4.856C-55.838,40.587-57.943,38.552-60.929,38.555z"/>
</g>
</svg>
